<svg id="font" version="1.1" xmlns="http://www.w3.org/2000/svg" xmlns:xlink="http://www.w3.org/1999/xlink">
	<path id="zero" transform="scale(01, -01) translate(0, -643)" d="M465 311q0 -164 -55 -244t-160 -80t-160 80t-55 244q0 162 56 242t159 80q105 0 160 -79.5t55 -242.5zM354 311q0 106 -26.5 161.5t-77.5 55.5q-50 0 -77 -55.5t-27 -161.5q0 -107 27 -162.5t77 -55.5q51 0 77.5 55.5t26.5 162.5zM306 321q0 -27 -15.5 -46.5t-39.5 -19.5 q-26 0 -41 19.5t-15 46.5t15 47t41 20q24 0 39.5 -20t15.5 -47z" />
	<path id="one" transform="scale(01, -01) translate(0, -643)" d="M213 102v346q-28 -20 -64 -35.5t-61 -24.5l-40 102q24 9 52 23t56 31t53 36t43 39h84v-517h123v-102h-376v102h130z" />
	<path id="two" transform="scale(01, -01) translate(0, -643)" d="M434 456q0 -32 -12 -61.5t-32 -57.5t-45 -54t-51 -50q-13 -12 -30 -28.5t-32 -34t-25.5 -35.5t-10.5 -33h266v-102h-404q-3 10 -2.5 25t0.5 21q0 50 18.5 92t47 77.5t61 66t61 58.5t47 54t18.5 53q0 38 -23 58.5t-58 20.5q-29 0 -61 -14t-63 -47l-61 86q40 42 92.5 62 t104.5 20q38 0 73 -11t62 -33t43 -55.5t16 -77.5z" />
	<path id="three" transform="scale(01, -01) translate(0, -643)" d="M213 -13q-23 0 -48.5 3.5t-49 8.5t-43.5 11t-31 11l24 103q23 -10 59.5 -21t87.5 -11q63 0 88.5 27t25.5 67q0 49 -39 68.5t-99 19.5h-38v102h46q19 0 38 4t34 13t24.5 24t9.5 38q0 34 -20.5 53.5t-56.5 19.5q-35 0 -69.5 -11.5t-59.5 -28.5l-44 90q27 18 71.5 36.5 t100.5 18.5q52 0 90.5 -13t63.5 -36.5t37 -55.5t12 -69t-21 -71t-56 -52q48 -20 74.5 -59t26.5 -93q0 -43 -14 -79t-43 -62.5t-74 -41t-107 -14.5z" />
	<path id="four" transform="scale(01, -01) translate(0, -643)" d="M285 465q-18 -23 -37 -49t-37.5 -54.5t-35.5 -57.5t-30 -57h140v218zM408 619v-372h67v-101h-67v-146h-123v146h-258v90q19 39 49 88.5t66 101.5t76 102.5t80 90.5h110z" />
	<path id="five" transform="scale(01, -01) translate(0, -643)" d="M321 182q0 26 -8.5 47.5t-34 37t-72.5 24t-123 8.5q10 84 16 164.5t9 155.5h316v-102h-213q-2 -32 -5 -67t-5 -57q124 -8 185 -60t61 -146q0 -43 -15 -79.5t-46 -63.5t-77 -42t-107 -15q-24 0 -49 3t-48 7.5t-41.5 10.5t-28.5 11l25 102q22 -11 56 -20t85 -9q36 0 59.5 8 t37 20.5t18.5 28.5t5 33z" />
	<path id="six" transform="scale(01, -01) translate(0, -643)" d="M241 294q-19 0 -39 -4t-33 -11q-1 -9 -1.5 -18t-0.5 -19q0 -29 4 -55.5t14 -47.5t27.5 -33.5t43.5 -12.5q21 0 36 10t24.5 25t14 33t4.5 35q0 47 -21 72.5t-73 25.5zM257 396q54 0 91.5 -16t61.5 -43t34.5 -63t10.5 -76q0 -36 -11.5 -73t-35.5 -68t-61 -50.5t-88 -19.5 q-104 0 -158.5 64.5t-54.5 201.5q0 90 26.5 159t75.5 116t118 71t153 24l7 -105q-40 -1 -78 -8t-70 -23.5t-55.5 -42.5t-34.5 -65q19 8 37 12.5t32 4.5z" />
	<path id="seven" transform="scale(01, -01) translate(0, -643)" d="M132 0q3 64 21 135.5t43.5 141.5t55.5 132.5t57 107.5h-260v102h404v-93q-27 -31 -59 -87t-60.5 -127t-50 -151.5t-26.5 -160.5h-125z" />
	<path id="eight" transform="scale(01, -01) translate(0, -643)" d="M446 472q0 -43 -21 -84.5t-66 -69.5q57 -33 80.5 -72t23.5 -86q0 -30 -11.5 -61t-37 -55.5t-66.5 -40.5t-101 -16q-47 0 -85.5 11.5t-66 33t-42.5 53t-15 70.5q0 47 22 88.5t69 73.5q-44 30 -60 64t-16 72q0 30 10.5 62.5t33.5 58.5t61 43t94 17q89 0 141.5 -44 t52.5 -118zM347 162q0 20 -7.5 35t-24 27.5t-42.5 25t-62 26.5q-28 -23 -43 -51.5t-15 -54.5q0 -40 28.5 -60.5t67.5 -20.5q45 0 71.5 21.5t26.5 51.5zM250 532q-32 0 -56.5 -18t-24.5 -53t23 -57t81 -46q31 23 44 50.5t13 53.5q0 35 -23.5 52.5t-56.5 17.5z" />
	<path id="nine" transform="scale(01, -01) translate(0, -643)" d="M261 329q19 0 40 4t34 11q1 8 1.5 19.5t0.5 22.5q0 25 -4.5 50.5t-15 46.5t-28 34t-43.5 13q-22 0 -37.5 -8.5t-25 -22.5t-14 -33t-4.5 -40q0 -47 22 -72t74 -25zM245 227q-54 0 -92 15.5t-62 42.5t-35 62.5t-11 76.5q0 36 12.5 73.5t37 68t61.5 50t87 19.5 q104 0 159 -70t55 -195q0 -90 -26 -159.5t-74.5 -116.5t-117 -71.5t-152.5 -24.5l-4 106q80 1 143 34.5t89 105.5q-39 -17 -70 -17z" />
	<path id="question" transform="scale(01, -01) translate(0, -643)" d="M166 225q-1 5 -1 15q0 40 21 76.5t55 64.5q23 19 43 40.5t20 46.5q0 30 -21 45.5t-53 15.5t-62 -9.5t-65 -26.5l-34 94q35 22 82 34t93 12q57 0 94 -15.5t58 -38.5t29.5 -50.5t8.5 -52.5q0 -29 -11.5 -53t-29 -45t-37.5 -39.5t-37.5 -36.5t-29 -37t-11.5 -40h-112z M313 71q0 -39 -25.5 -61t-57.5 -22q-16 0 -31 5.5t-27 16.5t-19 26t-7 35q0 19 7 34.5t19 26t27 16t31 5.5t31 -5.5t26.5 -16t18.5 -26t7 -34.5z" />
</svg>
